<?xml version="1.0" encoding="UTF-8" standalone="no"?>
<!-- Created with Inkscape (http://www.inkscape.org/) -->

<svg
   width="200"
   height="200"
   viewBox="0 0 52.916665 52.916668"
   version="1.1"
   id="svg16876"
   xmlns="http://www.w3.org/2000/svg"
   xmlns:svg="http://www.w3.org/2000/svg"
>
   <style>
        path {
            fill: #212529;
        }
    </style>
  <defs
     id="defs16873" />
  <g
     id="layer1">
    <g
       aria-label="L"
       transform="matrix(0.91904116,0,0,0.91904116,-45.58234,-57.020511)"
       id="text3354-2-7-6-7"
       style="font-size:40px;line-height:1.25;font-family:'Times New Roman';-inkscape-font-specification:'Times New Roman, ';white-space:pre;shape-inside:url(#rect3356-7-8-35-4)">
      <path
         id="path16681"
         style="font-weight:bold;font-family:Helvetica;-inkscape-font-specification:Helvetica;stroke-width:3.47354"
         d="m 50,50 v 100 h 58.75195 v 56.24609 h 58.75196 V 250 h 45.31836 c 5.1108,0 9.8358,-0.45284 14.17773,-1.35742 4.38715,-0.90456 8.18722,-2.57719 11.39844,-5.01953 2.84939,-2.12574 5.22346,-4.74838 7.12304,-7.86914 C 248.50655,231.05015 250,225.73546 250,219.81055 c 0,-5.74401 -1.31231,-10.62897 -3.93555,-14.6543 -2.57801,-4.02533 -6.42239,-6.96595 -11.5332,-8.82031 3.3469,-1.71869 5.87897,-3.61676 7.59766,-5.69727 3.07552,-3.70872 4.61328,-8.61681 4.61328,-14.72265 0,-5.92492 -1.53776,-11.01416 -4.61328,-15.26563 C 237.0181,153.73046 228.33503,150.18093 216.07812,150 h -48.57421 v 38.26953 h -37.85743 v -82.02344 h -20.89453 v 25.77539 H 70.896484 V 50 Z m 137.44922,117.36719 h 21.98047 c 4.83944,0 8.81869,0.52029 11.93945,1.56054 3.61828,1.49254 5.42774,4.56804 5.42774,9.22657 0,4.20624 -1.3566,7.12374 -4.07032,8.75195 -2.75893,1.67346 -6.33159,2.50977 -10.71875,2.50977 h -24.55859 z m 0,38.60351 h 24.89844 c 4.34192,0.0452 7.71031,0.60983 10.10742,1.69532 4.29669,1.94483 6.44531,5.51749 6.44531,10.71875 0,6.15106 -2.21606,10.31341 -6.64844,12.48437 -2.44233,1.17596 -5.85698,1.76367 -10.24414,1.76367 h -24.55859 z"
         transform="matrix(0.28789062,0,0,0.28789062,35.203183,47.648949)" />
    </g>
  </g>
</svg>
